<?xml version="1.0" standalone="no"?>
<!DOCTYPE svg PUBLIC "-//W3C//DTD SVG 20010904//EN"
 "http://www.w3.org/TR/2001/REC-SVG-20010904/DTD/svg10.dtd">
<svg version="1.0" xmlns="http://www.w3.org/2000/svg"
 width="512.000000pt" height="512.000000pt" viewBox="0 0 512.000000 512.000000"
 preserveAspectRatio="xMidYMid meet">

<g transform="translate(0.000000,512.000000) scale(0.100000,-0.100000)"
fill="#000000" stroke="none">
<path d="M2375 5114 c-569 -56 -1049 -265 -1445 -629 -399 -366 -654 -835
-751 -1380 -27 -151 -37 -481 -20 -647 44 -425 213 -855 478 -1213 l30 -40
-158 -590 c-87 -324 -157 -595 -156 -601 1 -6 277 99 612 233 565 226 613 243
645 235 19 -6 87 -29 150 -52 136 -49 311 -93 470 -117 159 -24 501 -24 660 0
717 109 1303 484 1700 1087 193 294 333 694 371 1058 17 166 7 496 -20 647
-106 596 -400 1097 -871 1485 -168 138 -461 303 -684 385 -129 47 -333 99
-476 120 -109 16 -445 28 -535 19z m-725 -1804 l0 -150 -225 0 -225 0 0 -150
0 -150 150 0 150 0 0 -155 0 -155 -150 0 -150 0 0 -150 0 -150 225 0 225 0 0
-150 0 -150 -375 0 -375 0 0 755 0 755 375 0 375 0 0 -150z m664 18 c30 -73
98 -234 151 -358 l95 -225 0 358 0 357 150 0 150 0 0 -755 0 -755 -147 0 -148
0 -152 363 -152 362 -1 -362 0 -363 -150 0 -150 0 0 755 0 755 149 0 149 0 56
-132z m1906 -18 l0 -150 -278 0 c-309 0 -343 -5 -401 -62 -70 -68 -71 -76 -71
-393 0 -315 2 -326 67 -386 59 -55 87 -63 241 -67 l142 -4 0 151 0 151 -75 0
-75 0 0 155 0 155 225 0 225 0 0 -456 0 -455 -317 3 c-311 4 -319 4 -383 29
-167 64 -286 189 -337 354 -16 53 -18 98 -18 370 0 292 1 314 22 380 42 133
137 247 261 313 102 55 145 60 475 61 l297 1 0 -150z"/>
</g>
</svg>
