<?xml version="1.0" encoding="UTF-8" standalone="no"?>
<svg xmlns="http://www.w3.org/2000/svg" version="1.1" width="100" height="98">
<path d="M5.5,5.5h32.8v11.7h-8.6l20.4,31.5l20.4-31.5h-8.95v-11.7h32.8v11.7h-9.2l-25.8,38.7v23.5h14.4v13.2h-47.6v-13.2h14.4v-23.5l-25.8-38.7h-9.2z" fill="none" stroke="#00356B" stroke-width="9"/>
<path d="M5.5,5.5h32.8v11.7h-8.6l20.4,31.5l20.4-31.5h-8.95v-11.7h32.8v11.7h-9.2l-25.8,38.7v23.5h14.4v13.2h-47.6v-13.2h14.4v-23.5l-25.8-38.7h-9.2z" fill="none" stroke="#fff" stroke-width="4.2"/>
<path d="M5.5,5.5h32.8v11.7h-8.6l20.4,31.5l20.4-31.5h-8.95v-11.7h32.8v11.7h-9.2l-25.8,38.7v23.5h14.4v13.2h-47.6v-13.2h14.4v-23.5l-25.8-38.7h-9.2z" fill="#00356B"/>
</svg>